<svg width="50" height="46" viewBox="0 0 50 46" fill="none" xmlns="http://www.w3.org/2000/svg">
<path fill-rule="evenodd" clip-rule="evenodd" d="M9.27083 28.7772C7.46667 25.8875 6.40833 22.4794 6.40833 18.8182C6.40833 8.42427 14.8021 0 25.1583 0C35.5146 0 43.9083 8.42427 43.9083 18.8182C43.9083 22.5651 42.8042 26.0485 40.9229 28.9821C39.6583 28.3339 38.3646 27.7589 37.0438 27.2696C38.7354 24.8797 39.7417 21.9671 39.7417 18.8182C39.7417 10.7473 33.1979 4.18182 25.1583 4.18182C17.1187 4.18182 10.575 10.7473 10.575 18.8182C10.575 21.9044 11.5375 24.7647 13.1667 27.1275C11.8417 27.5979 10.5417 28.1478 9.27083 28.7772ZM29.0229 19.3305L33.2333 15.0608L27.4458 14.2182L24.8979 8.671L22.3521 14.2182L16.5646 15.0587L20.775 19.3284L19.75 25.3983L24.8979 22.4898L30.0479 25.3983L29.0229 19.3305ZM36.2979 40.8459L41.1604 33.8999C36.4396 31.0019 30.9271 29.2957 25 29.2769C19.0729 29.2957 13.5604 31.0019 8.83958 33.8999L13.7021 40.8459C17.0417 38.9139 20.8854 37.7848 25 37.766C29.1146 37.7848 32.9583 38.9139 36.2979 40.8459ZM50 39.7273H45.0854L43.9062 46C42.6292 43.884 41.0146 42.0022 39.1625 40.3964L44.0437 33.4232C46.3104 35.2611 48.3187 37.2872 50 39.7273ZM10.8396 40.3964L5.95833 33.4232C3.68958 35.2611 1.68125 37.2872 0 39.7273H4.91667L6.09583 46C7.37292 43.884 8.98542 42.0043 10.8396 40.3964Z" fill="#C86DD7"/>
</svg>
