<svg width="50" height="46" viewBox="0 0 50 46" fill="none" xmlns="http://www.w3.org/2000/svg">
<path fill-rule="evenodd" clip-rule="evenodd" d="M39.5825 0C39.5825 13.1263 35.2302 20.6334 31.8275 26.5026C29.9168 29.7984 28.3055 32.5777 27.9324 35.5455H22.0886C21.7154 32.5772 20.1007 29.7974 18.1857 26.5009C14.7764 20.6319 10.4156 13.125 10.4156 0H39.5825ZM24.3636 27.2926C20.4344 20.4763 18.874 11.753 18.8511 4.18182H15.3114C15.7385 13.9004 19.4573 21.6054 24.3636 27.2926ZM22.024 37.6364H27.9949C28.3949 40.1183 29.1699 43.1125 33.3345 43.1125V46H16.6677V43.1125C20.7115 43.1125 21.6032 40.1183 22.024 37.6364ZM42.745 34.2993C39.8241 32.9736 37.3095 33.902 35.7574 34.9119C37.3095 33.8999 39.097 31.8508 39.0804 28.6329C34.9696 30.2857 34.347 32.4478 33.8514 34.169C33.6962 34.708 33.5534 35.2037 33.3199 35.627C32.6637 36.8209 31.222 36.1999 31.222 36.1999L30.7782 36.9359C31.5386 37.3395 32.8387 37.6029 34.3533 37.6029C37.0762 37.6029 40.497 36.7477 42.745 34.2993ZM42.6262 29.5759C43.4242 28.1081 44.9575 26.0925 47.8367 25.8896C46.4992 31.2005 40.5825 32.614 39.9283 32.6997L39.9137 31.855C39.9137 31.855 40.9262 31.8759 40.9346 30.9831C40.9395 30.5477 40.8416 30.0936 40.7351 29.6C40.3952 28.0241 39.968 26.044 42.5221 22.9728C43.9054 25.5154 43.4242 28.1081 42.6262 29.5759ZM49.995 17.7978C47.5554 18.6885 46.745 20.8777 46.4158 22.3455C46.745 20.8777 46.5013 18.4502 44.6762 16.5955C43.2246 19.8883 44.0829 21.4945 44.7662 22.7732C44.9802 23.1737 45.1771 23.542 45.2804 23.92C45.4929 24.6957 44.6033 25.1871 44.6033 25.1871L45.2075 25.5614C45.3346 25.5007 50.1763 22.7763 49.995 17.7978ZM47.5492 14.7514C47.4596 13.3985 47.6971 11.2616 49.5784 9.86909C50.4331 13.0938 49.3814 14.6767 48.5957 15.8593L48.5956 15.8593C48.3798 16.1842 48.184 16.4789 48.0534 16.7691C47.7554 17.4277 47.7013 17.6933 47.7013 17.6933L47.1096 17.733C47.1096 17.733 47.4408 16.9719 47.0617 16.3572C46.8766 16.0578 46.6134 15.7905 46.3274 15.4999C45.4126 14.5707 44.2635 13.4033 44.6825 10.189C46.7263 11.3244 47.4617 13.4006 47.5492 14.7514ZM45.6179 4.18182C45.6179 4.18182 45.0492 6.23927 45.5242 7.80327C46.0325 9.47182 47.3429 10.649 47.3429 10.649C47.3429 10.649 48.0513 8.82364 47.5492 7.02545C47.0867 5.36945 45.6179 4.18182 45.6179 4.18182ZM18.7781 36.1999L19.2219 36.9359C18.4594 37.3395 17.1615 37.6029 15.6469 37.605C12.9239 37.605 9.50098 36.7477 7.25513 34.2993C10.176 32.9736 12.6906 33.8999 14.2427 34.9119C12.6906 33.902 10.9031 31.8508 10.9197 28.6329C15.0305 30.2857 15.6531 32.4478 16.1488 34.169C16.304 34.708 16.4467 35.2037 16.6802 35.627C17.3385 36.8209 18.7781 36.1999 18.7781 36.1999ZM10.0697 32.6976L10.0843 31.8529C10.0843 31.8529 9.07181 31.8738 9.06348 30.981C9.05901 30.5462 9.15689 30.0931 9.2633 29.6005C9.60366 28.0248 10.0313 26.045 7.47597 22.9707C6.09262 25.5133 6.57388 28.1081 7.3718 29.5738C6.57388 28.106 5.03845 26.0904 2.16134 25.8875C3.49885 31.2005 9.41556 32.614 10.0697 32.6976ZM5.39678 25.1871L4.79261 25.5614C4.66345 25.5007 -0.178257 22.7763 0.00507736 17.7978C2.44676 18.6885 3.2551 20.8777 3.58427 22.3455C3.25302 20.8777 3.49885 18.4502 5.32387 16.5955C6.77551 19.8883 5.9172 21.4945 5.23389 22.7732C5.01988 23.1737 4.82304 23.542 4.7197 23.92C4.50719 24.6936 5.39678 25.1871 5.39678 25.1871ZM1.94676 16.7712C2.24468 17.4298 2.29884 17.6954 2.29884 17.6954L2.89052 17.7351C2.89052 17.7351 2.55926 16.974 2.93843 16.3593C3.12347 16.06 3.38636 15.7927 3.67213 15.5021C4.58647 14.5723 5.73507 13.4042 5.31762 10.1911C3.26969 11.3244 2.53635 13.3985 2.44885 14.7514C2.53635 13.3985 2.29884 11.2595 0.419664 9.86909C-0.435215 13.0943 0.616924 14.6772 1.40369 15.8608C1.61971 16.1858 1.81571 16.4807 1.94676 16.7712ZM2.6551 10.649C2.6551 10.649 1.94884 8.82364 2.44885 7.02545C2.91135 5.36945 4.38011 4.18182 4.38011 4.18182C4.38011 4.18182 4.94886 6.23927 4.47386 7.80327C3.96552 9.47182 2.6551 10.649 2.6551 10.649Z" fill="#C86DD7"/>
</svg>
