<svg width="48" height="48" viewBox="0 0 48 48" fill="none" xmlns="http://www.w3.org/2000/svg">
<path fill-rule="evenodd" clip-rule="evenodd" d="M13.774 0L8 9.942V12.138C8 14.27 6.132 16 4 16C1.868 16 0 14.27 0 12.136V9.942L9.746 0H13.774ZM19.878 0L18 9.942V12.138C18 14.27 16.132 16 14 16C11.868 16 10 14.27 10 12.136V9.942L15.992 0H19.878ZM44 16C46.132 16 48 14.27 48 12.136V9.942L38.254 0H34.226L40 9.804V12C40 14.134 41.868 16 44 16ZM28 9.8V11.996C28 14.128 26.132 16 24 16C21.868 16 20 14.134 20 12V9.804L22.094 0H25.906L28 9.8ZM37.996 10.004L32.008 0H28.122L30 9.804V12C30 14.134 31.868 16 34 16C36.132 16 37.996 14.334 37.996 12.2V10.004ZM42 24V38H6V24H42ZM2 20H46V48H2V20ZM9 31.672C8.744 31.672 8.488 31.574 8.292 31.38C7.902 30.99 7.902 30.356 8.292 29.966L11.964 26.294C12.354 25.904 12.988 25.904 13.378 26.294C13.768 26.684 13.768 27.318 13.378 27.708L9.706 31.38C9.512 31.574 9.256 31.672 9 31.672ZM18.056 27.688L10.036 35.708C9.84 35.902 9.584 36 9.328 36C9.072 36 8.816 35.902 8.622 35.708C8.232 35.318 8.232 34.684 8.622 34.294L16.642 26.274C17.032 25.884 17.666 25.884 18.056 26.274C18.446 26.664 18.446 27.298 18.056 27.688Z" fill="#C86DD7"/>
</svg>
