<svg width="48" height="48" viewBox="0 0 48 48" fill="none" xmlns="http://www.w3.org/2000/svg">
<path fill-rule="evenodd" clip-rule="evenodd" d="M9.874 2.882L6.73 0C2.558 4.226 0 9.752 0 15.832C0 21.912 2.558 27.436 6.728 31.664L9.872 28.782C6.528 25.288 4.478 20.78 4.478 15.832C4.478 10.884 6.53 6.376 9.874 2.882ZM31.858 23.034C33.554 21.028 34.566 18.534 34.566 15.832C34.566 13.13 33.554 10.636 31.858 8.63L34.998 5.752C37.512 8.502 39.042 12 39.042 15.832C39.042 19.664 37.51 23.16 34.998 25.914L31.858 23.034ZM16.142 23.034L13.002 25.912C10.488 23.16 8.958 19.664 8.958 15.832C8.958 12 10.488 8.502 13.002 5.752L16.142 8.63C14.446 10.636 13.434 13.13 13.434 15.832C13.434 18.534 14.446 21.028 16.142 23.034ZM41.27 0L38.128 2.882C41.472 6.376 43.522 10.884 43.522 15.832C43.522 20.78 41.472 25.288 38.128 28.782L41.272 31.664C45.442 27.434 48 21.91 48 15.832C48 9.754 45.442 4.226 41.27 0ZM22.132 32.424L16.142 48H11.916L22 21.464C19.676 20.638 18 18.44 18 15.832C18 12.518 20.688 9.832 24 9.832C27.312 9.832 30 12.518 30 15.832C30 18.44 28.324 20.636 26 21.464L36.166 48H31.858L25.868 32.424C25.57 31.652 24.828 31.142 24 31.142C23.172 31.142 22.428 31.652 22.132 32.424Z" fill="#C86DD7"/>
</svg>
