<svg width="46" height="50" viewBox="0 0 46 50" fill="none" xmlns="http://www.w3.org/2000/svg">
<path fill-rule="evenodd" clip-rule="evenodd" d="M46 29.4481C46 32.8423 44.1121 37.1231 39.9855 38.8827C36.1043 45.1 30.7395 50 23 50C15.6668 50 9.89575 45.1 6.0145 38.8827C1.88792 37.1212 0 32.8404 0 29.4481C0 25.5 1.65217 22.1404 5.19417 21.825C6.30875 9.88196 13.5539 6.7095 18.8139 4.4063C21.2604 3.33502 23.2775 2.45179 24.0484 0.961538C24.6675 2.03654 24.9627 3.98269 24.0101 5.35769C25.6833 5.27115 28.5028 2.85 29.2905 0.45C30.7357 1.15385 31.2704 3.48269 30.5478 4.97692C31.5867 4.77885 34.7396 2.76538 36.4167 0C37.7353 3.00577 36.4665 6.85192 35.0597 9.175L35.0367 9.17692C38.479 12.4596 40.3669 17.1173 40.8058 21.8231C44.3689 22.1404 46 25.5096 46 29.4481ZM16.7708 25C15.4483 25 14.375 26.2923 14.375 27.8846C14.375 29.4769 15.4483 30.7692 16.7708 30.7692C18.0933 30.7692 19.1667 29.4769 19.1667 27.8846C19.1667 26.2923 18.0933 25 16.7708 25ZM31.625 27.8846C31.625 29.4769 30.5517 30.7692 29.2292 30.7692C27.9067 30.7692 26.8333 29.4769 26.8333 27.8846C26.8333 26.2923 27.9067 25 29.2292 25C30.5517 25 31.625 26.2923 31.625 27.8846ZM28.75 36.5385C28.75 36.5385 27.2838 41.0654 23 41.0654C18.8734 41.0654 17.25 36.5385 17.25 36.5385H28.75ZM39.767 25.7577C40.0373 25.6385 40.6046 25.5673 41.055 25.8596C42.9717 27.1115 42.7685 33.9058 38.0784 35.4981C37.651 35.6442 37.2868 35.9365 37.053 36.325C33.7621 41.7904 29.302 46.1538 23 46.1538C18.9635 46.1538 13.639 44.1192 8.94892 36.325C8.71508 35.9365 8.35283 35.6442 7.9235 35.4981C3.2315 33.9058 3.02833 27.1115 4.945 25.8596C5.39542 25.5654 5.96467 25.6385 6.233 25.7577C7.50375 26.325 8.92783 25.3827 8.92783 24C8.92783 22.8577 9.05242 21.7231 9.246 20.6038C10.1515 16.9996 12.1734 17.627 15.1333 18.5456C19.1901 19.8045 25.009 21.6103 32.131 13.8173C34.9792 15.1846 36.4972 19.5115 37.1354 24.5192L37.1373 24.4885C37.4402 25.6385 38.6937 26.2385 39.767 25.7577Z" fill="#C86DD7"/>
</svg>
