<svg width="48" height="48" viewBox="0 0 48 48" fill="none" xmlns="http://www.w3.org/2000/svg">
<path fill-rule="evenodd" clip-rule="evenodd" d="M24 5.388V0H32V5.388C29.122 4.902 26.816 4.912 24 5.388ZM31.82 26.68L37.092 18.628L36.184 17.816L28.838 24.014C27.488 23.738 26.034 24.15 25.05 25.25C23.578 26.896 23.72 29.426 25.368 30.898C27.016 32.37 29.544 32.228 31.016 30.58C32 29.48 32.246 27.99 31.82 26.68ZM44.516 6.702L41.702 9.516C42.774 10.318 43.778 11.204 44.702 12.172L47.344 9.53L44.516 6.702ZM4 18H20V22H4V18ZM16 26H0V30H16V26ZM6 34H20V38H6V34ZM28 48C39.046 48 48 39.046 48 28C48 16.954 39.046 8 28 8C22.42 8 17.4 10.31 13.778 14H20.338C22.614 12.738 25.216 12 28 12C36.822 12 44 19.178 44 28C44 36.822 36.822 44 28 44C25.216 44 22.614 43.262 20.338 42H13.778C17.4 45.69 22.42 48 28 48Z" fill="#C86DD7"/>
</svg>
