<svg width="50" height="46" viewBox="0 0 50 46" fill="none" xmlns="http://www.w3.org/2000/svg">
<path fill-rule="evenodd" clip-rule="evenodd" d="M20.8333 0V12.5455H29.1667V0H20.8333ZM33.3333 12.5455V8.36364H50V46H0V8.36364H16.6667V12.5455H4.16667V41.8182H45.8333V12.5455H33.3333ZM29.1667 36.7937V37.6364H8.33333V36.7645C8.325 34.4394 8.425 33.1116 11.0917 32.4927L11.2778 32.4496C14.1351 31.7887 16.8685 31.1565 15.5125 28.6434C11.4021 21.0387 14.3396 16.7273 18.75 16.7273C23.0771 16.7273 26.0854 20.8777 21.9917 28.6434C20.6614 31.1609 23.353 31.7845 26.2934 32.4656L26.4104 32.4927C29.0854 33.1137 29.1771 34.4498 29.1667 36.7937ZM41.6667 16.7273H33.3333V20.9091H41.6667V16.7273ZM33.3333 25.0909H41.6667V29.2727H33.3333V25.0909ZM41.6667 33.4545H33.3333V37.6364H41.6667V33.4545ZM22.9167 6.27273C22.9167 7.42691 23.85 8.36364 25 8.36364C26.15 8.36364 27.0833 7.42691 27.0833 6.27273C27.0833 5.11855 26.15 4.18182 25 4.18182C23.85 4.18182 22.9167 5.11855 22.9167 6.27273Z" fill="#C86DD7"/>
</svg>
