<svg width="48" height="48" viewBox="0 0 48 48" fill="none" xmlns="http://www.w3.org/2000/svg">
<path fill-rule="evenodd" clip-rule="evenodd" d="M22.094 43.996C22.258 42.528 22.85 41.114 23.85 39.906C23.242 39.966 22.624 40 22 40C12.074 40 4 31.924 4 22C4 12.076 12.074 4 22 4C31.824 4 39.82 11.914 39.984 21.698L43.94 20.812C43.318 9.216 33.748 0 22 0C9.85 0 0 9.85 0 22C0 34.15 9.85 44 22 44L22.094 43.996ZM31.29 18.364C30.274 15.776 28.222 13.724 25.636 12.708L25.89 10.658C29.382 11.858 32.14 14.616 33.34 18.108L31.29 18.364ZM16 22C16 25.314 18.686 28 22 28C25.314 28 28 25.314 28 22C28 18.686 25.314 16 22 16C18.686 16 16 18.686 16 22ZM43.52 46C45.66 46 47.996 44.474 48 41.364V24L32.004 27.584V40.624C31.68 40.56 31.356 40.53 31.036 40.53C28.402 40.53 26 42.568 26 44.78C26 46.916 27.672 48 29.484 48C31.64 48 33.996 46.472 34 43.36V32.46L46 30.002V38.626C45.676 38.562 45.352 38.532 45.03 38.532C42.402 38.532 40 40.56 40 42.768C40 44.912 41.714 46 43.52 46ZM22 26C24.206 26 26 24.206 26 22C26 19.794 24.206 18 22 18C19.794 18 18 19.794 18 22C18 24.206 19.794 26 22 26ZM12.71 25.638C13.726 28.224 15.778 30.276 18.364 31.292L18.11 33.342C14.618 32.144 11.86 29.386 10.66 25.894L12.71 25.638ZM8.626 26.148L6.626 26.398C8.14 31.694 12.306 35.86 17.602 37.374L17.852 35.374C13.464 34.008 9.992 30.538 8.626 26.148ZM26.146 8.626L26.396 6.626C31.696 8.138 35.862 12.306 37.372 17.602L35.372 17.852C34.008 13.462 30.536 9.99 26.146 8.626Z" fill="#C86DD7"/>
</svg>
