<svg width="56" height="42" viewBox="0 0 56 42" fill="none" xmlns="http://www.w3.org/2000/svg">
<path fill-rule="evenodd" clip-rule="evenodd" d="M36.4896 2.02018C40.1085 3.92402 42.2964 5.075 45.5537 5.075C47.6916 5.03092 53.1107 4.69745 55.5945 4.5446L55.5945 4.5446L56 4.51967V22.8737C55.6949 22.9414 55.3966 23.0072 55.1047 23.0715L55.1036 23.0717C51.9791 23.7603 49.5839 24.2881 47.2453 25.4403C48.6547 28.826 46.5407 32.1977 43.3067 32.8557C42.5507 34.447 41.1133 35.5133 39.4613 35.8563C38.7473 37.3683 37.324 38.514 35.5787 38.8803C34.6267 40.873 32.655 42 30.5737 42C29.2157 42 27.93 41.5077 26.9173 40.6723C24.0567 42.0583 20.748 40.852 19.4787 38.1757C17.689 37.877 16.219 36.715 15.491 35.1913C13.748 34.895 12.2383 33.7657 11.4823 32.1907C7.80267 31.5723 5.82867 27.545 7.66967 24.206C4.96754 23.5861 2.94279 23.3977 0.738375 23.1925L0.738297 23.1925C0.494776 23.1699 0.249062 23.147 0 23.1233V4.66667H7.39667C9.83622 4.66667 11.658 3.80509 13.4205 2.97159L13.433 2.96567C16.4547 1.533 19.8637 -0.0676668 24.6517 3.64933C24.7956 3.48729 24.9351 3.32864 25.0711 3.17383L25.0724 3.17241L25.0724 3.17231C26.7105 1.30827 27.8601 0 30.6063 0C32.6779 0 34.1812 0.797244 35.9196 1.71922C36.104 1.81701 36.291 1.91621 36.4817 2.016L36.4896 2.02018ZM10.969 25.55C10.22 26.4413 10.3297 27.7107 11.2093 28.3733C12.0937 29.0337 13.4143 28.8493 14.1633 27.951L15.988 25.7203C16.7347 24.822 16.632 23.5597 15.7453 22.8947C14.8633 22.2273 13.5427 22.4163 12.7937 23.3123L10.969 25.55ZM15.2087 31.3647C14.3267 30.6973 14.1983 29.4607 14.9497 28.5647L16.793 26.3037C17.542 25.41 18.8627 25.221 19.7447 25.8813C20.6267 26.5463 20.7363 27.8133 19.985 28.7047L18.1417 30.9657C17.3927 31.864 16.0953 32.032 15.2087 31.3647ZM18.9677 31.5303C18.214 32.4287 18.326 33.6957 19.208 34.3607C20.0853 35.021 21.4107 34.8343 22.1597 33.936L23.982 31.7007C24.731 30.8047 24.6213 29.5423 23.7417 28.875C22.8573 28.21 21.5367 28.4037 20.7877 29.2997L18.9677 31.5303ZM27.9813 34.6873L26.1543 36.9343C25.4007 37.835 24.0823 38.0193 23.2003 37.3567C22.3183 36.6917 22.211 35.4293 22.9577 34.5333L24.7893 32.284C25.5407 31.3927 26.8613 31.2013 27.741 31.8687C28.6277 32.5267 28.735 33.7937 27.9813 34.6873ZM30.5737 38.4183C31.017 38.4183 31.4533 38.283 31.8127 38.0053C32.6643 37.338 32.76 36.1153 32.0133 35.259L31.724 35.0023C31.507 35.6953 31.1617 36.344 30.6973 36.8923L29.638 38.1967C29.9367 38.3367 30.254 38.4183 30.5737 38.4183ZM43.4047 28.9753C42.546 29.638 41.2487 29.477 40.5113 28.6347L34.6873 23.639C34.2043 23.226 33.5883 23.9563 34.0667 24.3623L39.7437 29.2367C40.488 30.0907 40.3923 31.3203 39.5383 31.9783C38.6773 32.648 37.3777 32.4893 36.6403 31.6377L32.172 27.7223C31.696 27.3047 31.066 28.0257 31.5397 28.4433L35.8983 32.2747C36.6427 33.1263 36.533 34.328 35.672 34.9953C34.8227 35.6533 33.5463 35.5343 32.7997 34.6757L31.948 33.9173C32.2583 30.9773 30.205 28.504 27.4587 28.0467C26.698 26.4507 25.1837 25.347 23.464 25.06C22.7127 23.478 21.2077 22.3603 19.4693 22.0687C17.9597 18.8977 13.804 17.99 10.9573 20.2557C9.08833 19.6957 7.01867 19.236 4.66667 18.9187V9.33333H7.39667C10.892 9.33333 13.4097 8.141 15.4303 7.182C17.9667 5.98033 19.1847 5.42267 21.4527 7.07467C19.9593 8.55867 18.4333 9.86533 16.863 10.7823C15.4887 11.5827 14.875 13.111 15.295 14.6743C15.8457 16.7137 18.2397 18.7763 21.7513 18.7763C25.2061 18.7763 27.3222 17.2174 29.145 15.8746C29.7611 15.4208 30.3436 14.9916 30.933 14.6557C34.4167 18.0063 40.103 23.1583 43.6963 26.383C44.317 27.2277 44.2143 28.3477 43.4047 28.9753ZM45.017 21.2963C47.131 20.23 49.2053 19.6373 51.3333 19.1357V9.47333C49.749 9.56433 47.726 9.67167 46.2793 9.73C41.5123 9.94269 38.3876 8.29774 34.4156 6.20675L34.3047 6.14833L32.7227 5.32C30.4477 4.14867 29.9483 4.704 29.218 5.53L29.1774 5.57604C26.6211 8.4716 23.7715 11.6994 20.6033 13.9207C22.827 14.7327 25.6923 12.8403 27.5357 11.3563C30.1 9.282 32.438 9.50367 34.7527 11.816C36.7827 13.846 42.4853 19.012 45.017 21.2963Z" fill="#C86DD7"/>
</svg>
