<svg width="48" height="48" viewBox="0 0 48 48" fill="none" xmlns="http://www.w3.org/2000/svg">
<path fill-rule="evenodd" clip-rule="evenodd" d="M4 40H16V44H0V4H6C8.42049 4 10.3018 1.89766 11.9247 0.0840907L12 0H28L28.0753 0.0840864L28.0753 0.0840903C29.6982 1.89766 31.5795 4 34 4H40V13.798C38.654 13.072 37.312 12.576 36 12.29V8H28L24 12H16.204L12 8H4V40ZM33.654 16H20V48H48V30.316C48 25.532 39.978 16 33.654 16ZM32 20C38.938 20 36 28 36 28C36 28 44 24.812 44 32V44H24V20H32ZM20 4C21.106 4 22 4.896 22 6C22 7.104 21.106 8 20 8C18.894 8 18 7.104 18 6C18 4.896 18.894 4 20 4ZM40 38V40H28V38H40ZM40 36V34H28V36H40ZM40 30V32H28V30H40Z" fill="#C86DD7"/>
</svg>
